<?xml version="1.0" encoding="UTF-8" standalone="no"?>
<!DOCTYPE svg PUBLIC "-//W3C//DTD SVG 1.1//EN" "http://www.w3.org/Graphics/SVG/1.1/DTD/svg11.dtd">
<svg xmlns="http://www.w3.org/2000/svg" version="1.1" viewBox="0.00 0.00 500.00 500.00">
<g stroke-width="2.00" fill="none" stroke-linecap="butt">
<path stroke="#09a5c0" vector-effect="non-scaling-stroke" d="
  M 344.46 176.90
  L 348.19 176.51
  Q 348.95 176.43 348.17 176.22
  Q 347.26 175.97 347.65 175.07
  Q 347.87 174.57 347.49 174.17
  L 343.94 170.48
  Q 343.87 170.40 343.83 170.51
  Q 343.79 170.63 343.76 170.76
  Q 343.72 170.91 343.59 170.83
  C 341.56 169.50 340.60 167.35 338.80 166.08
  Q 330.65 160.33 324.52 153.24
  Q 314.35 141.48 306.54 133.16"
/>
<path stroke="#256174" vector-effect="non-scaling-stroke" d="
  M 299.60 225.56
  Q 315.65 224.53 330.96 229.34
  Q 331.48 229.50 331.57 228.97
  Q 331.78 227.71 332.58 226.76
  Q 332.91 226.37 332.81 225.87
  Q 331.50 219.19 329.48 215.53
  Q 322.99 203.73 317.64 191.55"
/>
<path stroke="#f37970" vector-effect="non-scaling-stroke" d="
  M 211.82 210.62
  Q 211.61 210.72 211.40 210.76
  Q 211.04 210.85 211.00 211.22
  Q 210.98 211.39 210.98 211.55
  Q 210.97 211.75 210.89 211.90
  Q 207.83 217.46 207.49 223.00
  Q 206.28 242.88 211.68 261.87
  A 0.92 0.92 0.0 0 1 210.66 263.03
  L 200.07 261.42"
/>
<path stroke="#06758f" vector-effect="non-scaling-stroke" d="
  M 286.72 310.51
  L 286.44 307.89
  Q 286.34 306.98 286.07 307.85
  Q 285.89 308.47 285.93 309.17
  Q 285.95 309.42 285.86 309.18
  L 285.75 308.83
  Q 285.66 308.57 285.40 308.66
  Q 280.64 310.40 275.87 312.07
  C 274.41 312.58 272.75 312.37 271.21 313.23
  C 266.91 315.64 262.62 317.43 258.50 320.33
  Q 258.09 320.62 257.71 320.29
  Q 256.99 319.67 256.57 320.00"
/>
<path stroke="#82ad95" vector-effect="non-scaling-stroke" d="
  M 241.87 300.08
  L 225.74 308.02"
/>
<path stroke="#ad566f" vector-effect="non-scaling-stroke" d="
  M 307.53 367.99
  Q 309.25 363.72 309.58 359.05
  C 309.94 353.76 311.64 349.10 312.49 344.00
  Q 313.55 337.69 315.24 331.26"
/>
</g>
<path fill="#fdbe73" d="
  M 242.60 115.65
  C 250.67 122.30 251.22 134.85 245.75 143.35
  C 239.00 153.84 230.36 161.32 220.04 170.22
  C 209.96 178.90 200.53 169.80 200.50 158.93
  Q 200.47 147.38 198.81 135.96
  C 197.47 126.73 198.85 118.69 207.01 113.46
  C 218.20 106.29 232.43 107.27 242.60 115.65
  Z"
/>
<path fill="#faad6f" d="
  M 230.00 174.98
  A 0.27 0.27 0.0 0 1 229.95 174.45
  Q 230.20 174.41 230.34 173.99
  Q 230.45 173.63 230.72 173.36
  Q 246.70 157.58 262.42 141.53
  C 267.87 135.97 276.37 128.55 281.34 120.84
  C 284.27 116.29 288.27 112.41 293.66 114.93
  C 297.34 116.66 298.40 121.89 297.73 125.51
  Q 292.77 152.29 291.69 174.83
  Q 291.67 175.25 291.24 175.25
  L 230.00 174.98
  Z"
/>
<path fill="#0cbed8" d="
  M 344.46 176.90
  L 348.19 176.51
  Q 348.95 176.43 348.17 176.22
  Q 347.26 175.97 347.65 175.07
  Q 347.87 174.57 347.49 174.17
  L 343.94 170.48
  Q 343.87 170.40 343.83 170.51
  Q 343.79 170.63 343.76 170.76
  Q 343.72 170.91 343.59 170.83
  C 341.56 169.50 340.60 167.35 338.80 166.08
  Q 330.65 160.33 324.52 153.24
  Q 314.35 141.48 306.54 133.16
  C 308.46 125.17 314.74 117.89 323.38 120.99
  Q 326.61 122.14 331.42 126.97
  Q 344.36 139.95 357.05 153.10
  C 361.65 157.87 367.20 160.94 365.36 168.87
  C 363.08 178.72 352.74 177.17 344.46 176.90
  Z"
/>
<path fill="#0cbed8" d="
  M 187.32 132.68
  C 189.75 134.19 190.42 136.13 190.64 139.10
  Q 191.97 157.14 191.72 175.12
  A 0.93 0.93 0.0 0 1 190.79 176.04
  Q 180.12 175.97 170.25 175.68
  C 164.62 175.51 156.65 174.72 152.78 170.82
  C 148.04 166.02 150.86 160.29 155.13 156.06
  Q 164.92 146.35 175.11 137.07
  C 178.32 134.16 182.68 129.82 187.32 132.68
  Z"
/>
<path fill="#058ca7" d="
  M 306.54 133.16
  Q 314.35 141.48 324.52 153.24
  Q 330.65 160.33 338.80 166.08
  C 340.60 167.35 341.56 169.50 343.59 170.83
  Q 343.72 170.91 343.76 170.76
  Q 343.79 170.63 343.83 170.51
  Q 343.87 170.40 343.94 170.48
  L 347.49 174.17
  Q 347.87 174.57 347.65 175.07
  Q 347.26 175.97 348.17 176.22
  Q 348.95 176.43 348.19 176.51
  L 344.46 176.90
  L 303.27 175.59
  A 1.02 1.02 0.0 0 1 302.28 174.55
  C 302.57 161.35 302.57 145.93 306.54 133.16
  Z"
/>
<path fill="#d56881" d="
  M 189.77 198.89
  A 0.37 0.36 25.8 0 1 189.94 199.37
  C 188.33 202.88 182.70 207.40 181.07 208.82
  C 168.25 220.05 155.74 232.16 142.16 242.42
  Q 138.47 245.21 134.22 243.10
  C 116.85 234.47 108.47 210.40 119.16 193.42
  C 129.07 177.67 144.76 176.98 160.17 184.38
  Q 174.79 191.40 189.77 198.89
  Z"
/>
<path fill="#d56881" d="
  M 191.30 182.26
  L 190.94 187.80
  Q 190.89 188.54 190.24 188.21
  L 174.20 180.20
  Q 173.21 179.70 174.31 179.80
  L 190.50 181.31
  Q 191.36 181.39 191.30 182.26
  Z"
/>
<path fill="#ee716f" d="
  M 208.20 183.17
  L 201.33 188.94
  A 0.32 0.32 0.0 0 1 200.81 188.69
  L 201.08 182.02
  A 0.32 0.32 0.0 0 1 201.44 181.72
  L 208.03 182.61
  A 0.32 0.32 0.0 0 1 208.20 183.17
  Z"
/>
<path fill="#faad6f" d="
  M 235.65 183.22
  C 252.67 183.71 269.73 183.54 286.75 183.48
  Q 287.52 183.48 289.51 183.89
  Q 289.99 184.00 290.20 184.44
  Q 293.03 190.35 287.98 194.47
  Q 273.37 206.42 259.51 219.26
  Q 257.99 220.67 254.00 222.74
  Q 253.53 222.99 253.06 222.73
  L 206.67 197.24
  A 0.55 0.50 39.6 0 1 206.55 196.37
  Q 213.39 191.00 219.72 184.73
  C 221.86 182.61 230.51 183.07 235.65 183.22
  Z"
/>
<path fill="#d95873" d="
  M 301.56 183.67
  L 308.21 184.04
  A 0.33 0.33 0.0 0 1 308.36 184.65
  L 301.37 188.80
  A 0.33 0.33 0.0 0 1 300.88 188.49
  L 301.22 183.97
  A 0.33 0.33 0.0 0 1 301.56 183.67
  Z"
/>
<path fill="#217a91" d="
  M 299.60 225.56
  Q 315.65 224.53 330.96 229.34
  Q 331.48 229.50 331.57 228.97
  Q 331.78 227.71 332.58 226.76
  Q 332.91 226.37 332.81 225.87
  Q 331.50 219.19 329.48 215.53
  Q 322.99 203.73 317.64 191.55
  C 332.15 185.73 348.92 185.74 364.25 187.06
  C 385.26 188.86 394.57 209.13 386.20 227.47
  C 377.93 245.58 359.90 240.71 342.64 238.21
  C 328.00 236.09 314.16 235.56 299.76 235.05
  Q 299.23 235.03 299.25 234.50
  L 299.60 225.56
  Z"
/>
<path fill="#294857" d="
  M 317.64 191.55
  Q 322.99 203.73 329.48 215.53
  Q 331.50 219.19 332.81 225.87
  Q 332.91 226.37 332.58 226.76
  Q 331.78 227.71 331.57 228.97
  Q 331.48 229.50 330.96 229.34
  Q 315.65 224.53 299.60 225.56
  L 300.86 199.06
  Q 300.89 198.52 301.39 198.31
  L 317.64 191.55
  Z"
/>
<path fill="#d95873" d="
  M 288.96 233.96
  A 0.69 0.69 0.0 0 1 288.36 234.64
  Q 282.74 235.38 276.93 235.87
  C 270.28 236.44 267.59 233.31 262.99 229.16
  Q 262.59 228.80 262.89 228.35
  Q 263.78 227.05 265.04 226.03
  Q 277.82 215.77 289.21 204.15
  A 0.43 0.42 65.8 0 1 289.94 204.43
  C 290.41 214.17 289.04 224.35 288.96 233.96
  Z"
/>
<path fill="#ee716f" d="
  M 211.82 210.62
  Q 211.61 210.72 211.40 210.76
  Q 211.04 210.85 211.00 211.22
  Q 210.98 211.39 210.98 211.55
  Q 210.97 211.75 210.89 211.90
  Q 207.83 217.46 207.49 223.00
  Q 206.28 242.88 211.68 261.87
  A 0.92 0.92 0.0 0 1 210.66 263.03
  L 200.07 261.42
  L 200.02 206.19
  A 0.92 0.92 0.0 0 1 201.36 205.36
  L 211.82 210.62
  Z"
/>
<path fill="#f88170" d="
  M 211.82 210.62
  C 223.72 217.43 236.06 223.74 247.04 231.40
  Q 249.09 232.83 247.20 234.47
  L 201.14 274.35
  A 0.55 0.55 0.0 0 1 200.23 273.94
  L 200.07 261.42
  L 210.66 263.03
  A 0.92 0.92 0.0 0 0 211.68 261.87
  Q 206.28 242.88 207.49 223.00
  Q 207.83 217.46 210.89 211.90
  Q 210.97 211.75 210.98 211.55
  Q 210.98 211.39 211.00 211.22
  Q 211.04 210.85 211.40 210.76
  Q 211.61 210.72 211.82 210.62
  Z"
/>
<path fill="#ee716f" d="
  M 147.02 252.24
  A 0.59 0.59 0.0 0 1 146.98 251.38
  Q 147.69 250.66 148.75 249.76
  Q 170.10 231.54 190.27 212.49
  A 0.44 0.43 68.5 0 1 191.00 212.81
  L 191.00 281.53
  Q 191.00 282.70 189.97 282.15
  Q 188.22 281.22 186.15 279.81
  C 173.15 271.00 158.95 262.42 147.02 252.24
  Z"
/>
<path fill="#058ca7" d="
  M 286.72 310.51
  L 286.44 307.89
  Q 286.34 306.98 286.07 307.85
  Q 285.89 308.47 285.93 309.17
  Q 285.95 309.42 285.86 309.18
  L 285.75 308.83
  Q 285.66 308.57 285.40 308.66
  Q 280.64 310.40 275.87 312.07
  C 274.41 312.58 272.75 312.37 271.21 313.23
  C 266.91 315.64 262.62 317.43 258.50 320.33
  Q 258.09 320.62 257.71 320.29
  Q 256.99 319.67 256.57 320.00
  C 252.42 297.60 246.11 277.69 237.98 256.13
  A 1.05 1.05 0.0 0 1 238.10 255.17
  C 242.51 248.63 250.79 241.82 255.32 237.83
  Q 255.75 237.46 256.20 237.79
  Q 272.52 250.11 287.13 264.42
  A 1.27 1.26 -67.1 0 1 287.50 265.34
  L 286.72 310.51
  Z"
/>
<path fill="#faad6f" d="
  M 338.46 306.38
  C 330.17 297.98 322.66 288.21 315.07 279.88
  Q 307.21 271.27 299.08 261.18
  C 297.01 258.61 298.18 247.69 298.32 244.12
  Q 298.34 243.62 298.85 243.62
  C 327.14 243.45 352.61 247.76 376.29 262.06
  C 384.27 266.88 388.60 276.66 389.04 285.76
  C 389.97 305.26 375.48 318.52 356.27 317.03
  C 348.24 316.41 344.65 312.66 338.46 306.38
  Z"
/>
<path fill="#ee716f" d="
  M 287.37 252.17
  C 285.05 250.11 282.53 248.27 281.37 245.22
  Q 281.10 244.51 281.86 244.45
  L 287.25 243.99
  A 0.62 0.62 0.0 0 1 287.92 244.58
  L 288.20 251.77
  A 0.50 0.50 0.0 0 1 287.37 252.17
  Z"
/>
<path fill="#faad6f" d="
  M 121.76 307.62
  C 115.33 299.94 113.38 290.32 115.11 280.56
  C 116.78 271.14 123.18 262.35 132.54 259.74
  C 136.98 258.50 141.94 261.29 145.46 263.77
  Q 162.68 275.91 180.29 287.47
  C 180.79 287.80 181.43 288.60 181.74 288.91
  A 1.99 1.98 -44.7 0 1 181.72 291.74
  Q 169.58 303.56 155.93 312.84
  C 143.41 321.36 131.22 318.93 121.76 307.62
  Z"
/>
<path fill="#fdbe73" d="
  M 241.87 300.08
  L 225.74 308.02
  Q 214.64 299.19 202.77 291.25
  Q 201.28 290.26 200.06 288.12
  Q 199.79 287.63 200.21 287.27
  L 228.93 262.63
  A 0.51 0.50 -32.4 0 1 229.72 262.80
  Q 237.60 280.63 241.87 300.08
  Z"
/>
<path fill="#3d3941" d="
  M 303.89 281.86
  Q 315.19 293.32 324.64 306.32
  C 330.27 314.06 330.57 320.79 319.11 321.85
  Q 309.63 322.72 298.91 325.04
  Q 297.00 325.45 297.00 323.50
  L 297.00 277.27
  A 1.17 1.17 0.0 0 1 298.77 276.27
  C 300.12 277.08 302.56 280.51 303.89 281.86
  Z"
/>
<path fill="#faad6f" d="
  M 172.66 356.12
  Q 166.06 349.71 159.57 343.18
  C 152.83 336.40 149.35 329.11 158.62 322.51
  C 169.74 314.58 179.53 305.55 190.18 297.28
  A 0.39 0.38 71.3 0 1 190.80 297.59
  Q 190.72 327.10 189.68 356.68
  C 189.53 361.01 181.81 361.95 179.34 361.13
  Q 177.02 360.37 172.66 356.12
  Z"
/>
<path fill="#069cb7" d="
  M 241.87 300.08
  Q 244.94 310.99 246.54 322.31
  A 1.00 0.99 -74.9 0 1 244.94 323.23
  L 225.74 308.02
  L 241.87 300.08
  Z"
/>
<path fill="#069cb7" d="
  M 201.46 302.87
  L 249.56 339.23
  A 1.47 1.47 0.0 0 1 248.99 341.84
  C 232.62 345.40 216.76 350.62 200.63 356.04
  A 1.44 1.43 81.3 0 1 198.74 354.65
  L 199.94 303.60
  A 0.95 0.94 19.2 0 1 201.46 302.87
  Z"
/>
<path fill="#065d76" d="
  M 286.72 310.51
  L 286.25 326.92
  Q 286.23 327.42 285.75 327.55
  Q 275.75 330.32 265.78 333.09
  C 256.91 335.54 257.62 325.15 256.57 320.00
  Q 256.99 319.67 257.71 320.29
  Q 258.09 320.62 258.50 320.33
  C 262.62 317.43 266.91 315.64 271.21 313.23
  C 272.75 312.37 274.41 312.58 275.87 312.07
  Q 280.64 310.40 285.40 308.66
  Q 285.66 308.57 285.75 308.83
  L 285.86 309.18
  Q 285.95 309.42 285.93 309.17
  Q 285.89 308.47 286.07 307.85
  Q 286.34 306.98 286.44 307.89
  L 286.72 310.51
  Z"
/>
<path fill="#d95873" d="
  M 307.53 367.99
  Q 309.25 363.72 309.58 359.05
  C 309.94 353.76 311.64 349.10 312.49 344.00
  Q 313.55 337.69 315.24 331.26
  Q 335.27 327.19 356.25 325.71
  C 368.04 324.88 367.73 334.86 361.28 340.78
  C 350.66 350.55 340.65 361.06 329.64 370.18
  C 322.11 376.41 314.29 372.72 307.53 367.99
  Z"
/>
<path fill="#81536a" d="
  M 315.24 331.26
  Q 313.55 337.69 312.49 344.00
  C 311.64 349.10 309.94 353.76 309.58 359.05
  Q 309.25 363.72 307.53 367.99
  Q 301.34 364.83 297.70 359.19
  Q 297.45 358.81 297.44 358.36
  L 296.93 335.50
  A 1.22 1.21 -5.7 0 1 297.94 334.27
  L 315.24 331.26
  Z"
/>
<path fill="#d95873" d="
  M 270.12 340.36
  L 285.75 336.97
  A 0.31 0.31 0.0 0 1 286.13 337.25
  L 287.06 353.22
  A 0.31 0.31 0.0 0 1 286.56 353.48
  L 270.00 340.91
  A 0.31 0.31 0.0 0 1 270.12 340.36
  Z"
/>
<path fill="#d95873" d="
  M 296.35 374.81
  C 306.84 384.32 291.47 389.51 284.80 389.38
  Q 278.09 389.25 271.62 385.89
  C 257.26 378.43 262.61 358.73 260.90 347.98
  Q 260.78 347.21 261.04 346.91
  Q 261.70 346.17 262.45 346.82
  C 273.85 356.52 285.51 364.99 296.35 374.81
  Z"
/>
<path fill="#faad6f" d="
  M 206.77 385.21
  C 201.64 382.34 194.52 374.54 198.56 368.28
  Q 199.70 366.51 202.78 365.44
  Q 219.24 359.76 245.41 351.87
  C 247.95 351.11 249.74 351.42 250.44 354.29
  C 257.10 381.51 228.68 397.49 206.77 385.21
  Z"
/>
</svg>
